name processed_emg_signals
nRows=82
nColumns=7
 
endheader
time	LGLTMED	LRF	LADDLONG	LST	LTA	LGM
0.0	0.0743112964973699	0.0358903378972378	0.0161813812642518	0.1517593376077552	0.0500282713005242	0.0323014900012999
0.001	0.0774210651795734	0.0381870578358209	0.0234270016970145	0.1439662869479291	0.0353473332345743	0.034668126001795
0.002	0.0805437250624015	0.040478637346229	0.0306701659102222	0.1361858999619485	0.020674580230224	0.0370047225287478
0.003	0.0836768247595815	0.0427634075871865	0.0379065550616489	0.1284205279248916	0.0060194701643674	0.0393091318817048
0.004	0.0868178804824682	0.0450397056556712	0.0451318514115023	0.1206724155843269	0.0086085569474239	0.0415792396571915
0.005	0.0899643796321731	0.0473058773636308	0.0523417440131373	0.1129436967788666	0.0232000930885801	0.0438129690003734
0.006	0.0931137844612849	0.0495602799991498	0.0595319343897425	0.1052363903130431	0.0377457761936173	0.0460082848408768
0.007	0.0962635357941993	0.0518012850630649	0.0666981421843467	0.0975523961003714	0.0522363038656087	0.048163198100959
0.008	0.0994110567954887	0.0540272809717141	0.0738361107714985	0.0898934915854907	0.0666624468150682	0.050275769864665
0.009000000000000001	0.1025537567768887	0.0562366757168766	0.0809416128196671	0.0822613284556131	0.081015061980382	0.0523441154973164
0.01	0.1056890350340471	0.0584278994737125	0.0880104557932361	0.0746574296505515	0.0952851052933793	0.0543664087054361
0.011	0.1088142847054833	0.0605994071476933	0.0950384873836252	0.0670831866798743	0.1094636440565053	0.0563408855285102
0.012	0.1119268966469668	0.0627496808518422	0.1020216008587804	0.0595398572548759	0.1235418689013649	0.0582658482549567
0.013000000000000001	0.1150242633147819	0.0648772323059414	0.1089557403209989	0.0520285632422645	0.1375111053020943	0.0601396692556558
0.014	0.1181037826519909	0.0669806051500622	0.1158369058632194	0.0445502889456139	0.1513628246213965	0.0619607947288788
0.015	0.121162861972115	0.0690583771655071	0.1226611586145106	0.0371058797197097	0.1650886546720396	0.0637277483508709
0.016	0.1241989218343266	0.0711091623969997	0.1294246256661111	0.0296960409214674	0.1786803897819403	0.0654391348265356
0.017	0.1272093999051809	0.0731316131707743	0.1361235048695136	0.022321337199415	0.1921300003561692	0.0670936433347764
0.018000000000000002	0.1301917548005447	0.0751244220042722	0.1427540694988213	0.0149821921218059	0.2054296419338556	0.0686900508631726
0.019	0.1331434699027526	0.0770863234037064	0.1493126727695732	0.0076788881414529	0.2185716637415023	0.0702272254268068
0.02	0.1360620571472881	0.0790160955470199	0.1557957522068078	0.0004115668940586	0.2315486167469032	0.0717041291660032
0.021	0.138945060773986	0.0809125618503482	0.1621998338557634	0.006819770174269	0.2443532612198496	0.0731198213181075
0.022	0.1417900610386644	0.0827745924170736	0.1685215363289477	0.0140152608551638	0.2569785738071853	0.0744734610585024
0.023	0.1445946778804934	0.0846011053689621	0.1747575746841544	0.0211751809071094	0.2694177541307346	0.0757643102066835
0.024	0.1473565745420339	0.0863910680596289	0.1809047641281767	0.0282999424711141	0.2816642309169049	0.0769917357936444
0.025	0.1500734611383246	0.0881434981710687	0.1869600235413696	0.0353900921789184	0.2937116676667333	0.0781552124874475
0.026000000000000002	0.1527430981722639	0.0898574646947972	0.1929203788182444	0.0424463089599402	0.3055539678748557	0.0792543248742145
0.027	0.1553632999931157	0.091532088799783	0.1987829660195054	0.0494694015536078	0.3171852798055601	0.0802887695920949
0.028	0.1579319381955401	0.0931665445896645	0.2045450343308	0.0564603057339768	0.3286000008340354	0.0812583573160036
0.029	0.1604469449561875	0.0947600597522342	0.2102039488243929	0.063420081254018	0.3397927813606622	0.0821630145911715
0.03	0.162906316305239	0.0963119161041145	0.2157571930206483	0.0703499085172984	0.3507585283062062	0.0830027855135917
0.031	0.1653081153305036	0.0978214500339384	0.2212023712478689	0.0772510849853038	0.3614924081956188	0.0837778332559496
0.032	0.1676504753116801	0.0992880528471211	0.2265372108007518	0.0841250213290796	0.3719898498379972	0.084488441437594
0.033	0.1699316027828442	0.1007111710158814	0.2317595638986946	0.0909732373344532	0.3822465466100805	0.0851350153376191
0.034	0.1721497805209776	0.1020903063379498	0.2368674094464649	0.0977973575706474	0.3922584583503017	0.0857180829499855
0.035	0.1743033704592923	0.1034250160079092	0.2418588546002275	0.1045991068324356	0.4020218128700503	0.0862382958801391
0.036000000000000004	0.1763908165231835	0.1047149126050269	0.2467321361420398	0.1113803053662605	0.4115331070885699	0.0866964300822816
0.037	0.1784106473876858	0.1059596640017262	0.2514856216663301	0.1181428638907212	0.4207891077984058	0.0870933864368609
0.038	0.1803614791543715	0.107158993196676	0.2561178105815963	0.1248887784216954	0.4297868520697808	0.0874301911675482
0.039	0.1822420179460784	0.1083126780765869	0.2606273349307021	0.1316201249123094	0.4385236473047289	0.087707996097053
0.04	0.1840510624168523	0.1094205511108792	0.2650129600325948	0.138339053717704	0.4469970709545073	0.0879280787410222
0.041	0.185787506174869	0.1104824989834762	0.2692735849482272	0.1450477838943373	0.4552049699161801	0.0880918422392505
0.042	0.1874503401156856	0.1114984621661731	0.2734082427726421	0.1517485973433741	0.4631454596254472	0.0882008151234585
0.043000000000000003	0.18903865466284	0.1124684344378717	0.2774161007550488	0.1584438328074593	0.4708169228628097	0.088256650920872
0.044	0.1905516419136867	0.1133924623541133	0.2812964602475303	0.1651358797300924	0.4782180082895276	0.0882611275928631
0.045	0.1919885976877824	0.1142706446710461	0.2850487564832146	0.171827171986935	0.4853476287287319	0.0882161468080115
0.046	0.1933489234765225	0.1151031317280288	0.288672558183401	0.1785201814986607	0.4922049592059264	0.0881237330490087
0.047	0.1946321282918288	0.1158901247927583	0.2921675669928841	0.1852174117355685	0.4987894347621066	0.0879860325528918
0.048	0.1958378304125183	0.1166318753729772	0.2955336167421011	0.1919213911247427	0.505100748052216	0.087805312084074
0.049	0.1969657590268825	0.1173286844983114	0.2987706725341322	0.1986346663715738	0.5111388467412136	0.087583957539718
0.05	0.1980157557695177	0.1179809019759586	0.3018788296548107	0.2053597957081247	0.5169039307102707	0.0873244723868686
0.051000000000000004	0.1989877761512125	0.118588925623445	0.30485831230377	0.2120993420816086	0.5223964490859333	0.0870294759311146
0.052000000000000005	0.1998818908797774	0.1191532004815326	0.3077094721445946	0.218855866296896	0.527617097105694	0.0867017014166919
0.053	0.2006982870711078	0.1196742180100514	0.3104327866721622	0.2256319201275158	0.5325668128339162	0.0863439939587463
0.054	0.2014372693491446	0.120152515269194	0.3130288573959412	0.2324300394101136	0.5372467737422278	0.0859593083087917
0.055	0.2020992608333658	0.1205886740884783	0.3154984078392026	0.2392527371374241	0.5416583931681711	0.085550706454895
0.056	0.2026848040129064	0.120983320225643	0.3178422813552794	0.2461024965650015	0.5458033166654097	0.0851213550584837
0.057	0.2031945615052635	0.1213371225173529	0.3200614387634959	0.2529817643468725	0.5496834182579978	0.0846745227296944
0.058	0.2036293166978538	0.1216507920236622	0.3221569558087916	0.2598929437150961	0.5533007966104802	0.0842135771432164
0.059000000000000004	0.2039899742705173	0.1219250811681196	0.3241300204504308	0.2668383877182239	0.5566577711246348	0.0837419819966222
0.06	0.2042775605976345	0.1221607828750366	0.3259819299859982	0.2738203925334392	0.5597568779727686	0.083263293813141
0.061	0.204493224028106	0.1223587297057199	0.3277140880184536	0.2808411908671933	0.5626008660766646	0.0827811585907011
0.062	0.2046382350418954	0.1225197929949905	0.3293280012743418	0.2879029454587883	0.5651926930407096	0.0822993082991933
0.063	0.2047139862817164	0.1226448819896919	0.3308252762826039	0.2950077427011019	0.5675355210475599	0.0818215572278
0.064	0.20472199245754	0.1227349429908314	0.3322076159238756	0.3021575863921293	0.5696327127249834	0.081351798184409
0.065	0.2046638901216375	0.1227909585010089	0.3334768158606609	0.3093543916305951	0.5714878269927679	0.0808939985493227
0.066	0.2045414373114377	0.1228139463789952	0.3346347608594537	0.3165999788686343	0.5731046148986217	0.0804521961855518
0.067	0.2043565130567689	0.1228049590031553	0.3356834210156537	0.3238960681340415	0.5744870154515558	0.0800304952083948
0.068	0.2041111167487134	0.1227650824455119	0.3366248478922942	0.3312442734342307	0.5756391514603778	0.0796330616169377
0.069	0.2038073673662636	0.1226954356577439	0.3374611705831774	0.3386460973532147	0.5765653253836327	0.0792641187904081
0.07	0.203447502557955	0.1225971696703469	0.3381945917108099	0.346102925852093	0.5772700151959915	0.0789279428524918
0.07100000000000001	0.2030338775757571	0.1224714668058563	0.3388273833689527	0.3536160232824488	0.5777578702743578	0.0786288579069719
0.07200000000000001	0.2025689640582938	0.1223195399066493	0.3393618830189664	0.3611865276209985	0.5780337073053656	0.0783712311483939
0.073	0.2020553486616089	0.122142631577752	0.3398004893485116	0.3688154459326773	0.5781025062141786	0.078159467851747
0.074	0.2014957315349825	0.1219420134445279	0.3401456581007767	0.3765036500682188	0.5779694061126538	0.0779980062454465
0.075	0.2008929246403073	0.1217189854251091	0.340399897882113	0.384251872601385	0.5776397012631914	0.077891312272095
0.076	0.2002498499134327	0.1214748750167971	0.3405657659560321	0.3920607030102563	0.577118837052811	0.0778438742415822
0.077	0.1995695372663658	0.1212110365957247	0.3406458640318124	0.3999305841064741	0.5764124059705041	0.0778601973811241
0.078	0.1988551224297426	0.1209288507284175	0.3406428340562137	0.4078618087158014	0.5755261435798347	0.0779447982868175
0.079	0.1981098446350989	0.1206297234940489	0.3405593540169761	0.415854516613142	0.5744659244779238	0.0781021992814525
0.08	0.1973370441366497	0.1203150858158381	0.3403981337672112	0.4239086917146611	0.5732377582315783	0.0783369226831904
0.081	0.1965401595717247	0.1199863928003519	0.340161910879599	0.4320241595294758	0.5718477852812401	0.0786534849898967
